<svg width="18" height="19" viewBox="0 0 18 19" fill="none" xmlns="http://www.w3.org/2000/svg">
<circle cx="9" cy="9.5" r="8.63636" stroke="#979797" stroke-width="0.727273"/>
<path d="M9.68378 6.84766C9.30292 6.84766 9.00182 7.07064 8.78046 7.5166C8.56236 7.96257 8.45331 8.58268 8.45331 9.37695C8.45331 11.0306 8.88463 11.8574 9.74726 11.8574C10.1249 11.8574 10.5204 11.737 10.9338 11.4961V12.6777C10.5855 12.9089 10.1395 13.0244 9.59589 13.0244C8.79185 13.0244 8.17336 12.7054 7.74042 12.0674C7.31073 11.4261 7.09589 10.526 7.09589 9.36719C7.09589 8.20833 7.31725 7.30501 7.75995 6.65723C8.20592 6.00944 8.82441 5.68555 9.61542 5.68555C9.87584 5.68555 10.1249 5.72135 10.3625 5.79297C10.6034 5.86458 10.8605 5.98991 11.134 6.16895L10.6945 7.24805C10.548 7.14714 10.3918 7.05599 10.2258 6.97461C10.0598 6.88997 9.87909 6.84766 9.68378 6.84766Z" fill="#979797"/>
</svg>
