<svg width="21" height="24" viewBox="0 0 21 24" fill="none" xmlns="http://www.w3.org/2000/svg">
<path d="M14.4873 13.5312V13.0312C14.4873 12.4583 14.5915 11.9818 14.7998 11.6016C15.0081 11.2214 15.3727 10.8281 15.8936 10.4219C16.5133 9.93229 16.9118 9.55208 17.0889 9.28125C17.2712 9.01042 17.3623 8.6875 17.3623 8.3125C17.3623 7.875 17.2165 7.53906 16.9248 7.30469C16.6331 7.07031 16.2139 6.95312 15.667 6.95312C15.1722 6.95312 14.7139 7.02344 14.292 7.16406C13.8701 7.30469 13.4587 7.47396 13.0576 7.67188L12.4014 6.29688C13.4587 5.70833 14.5915 5.41406 15.7998 5.41406C16.8206 5.41406 17.6305 5.66406 18.2295 6.16406C18.8285 6.66406 19.1279 7.35417 19.1279 8.23438C19.1279 8.625 19.0706 8.97396 18.9561 9.28125C18.8415 9.58333 18.667 9.8724 18.4326 10.1484C18.2035 10.4245 17.805 10.7839 17.2373 11.2266C16.7529 11.6068 16.4274 11.9219 16.2607 12.1719C16.0993 12.4219 16.0186 12.7578 16.0186 13.1797V13.5312H14.4873ZM14.167 16.0234C14.167 15.237 14.5498 14.8438 15.3154 14.8438C15.6904 14.8438 15.9769 14.9479 16.1748 15.1562C16.3727 15.3594 16.4717 15.6484 16.4717 16.0234C16.4717 16.3932 16.3701 16.6875 16.167 16.9062C15.9691 17.1198 15.6852 17.2266 15.3154 17.2266C14.9456 17.2266 14.6618 17.1224 14.4639 16.9141C14.266 16.7005 14.167 16.4036 14.167 16.0234Z" fill="#979797"/>
<rect y="7" width="5" height="1" fill="#979797"/>
<rect y="10" width="7" height="1" fill="#979797"/>
<rect y="13" width="8" height="1" fill="#979797"/>
<rect y="16" width="10" height="1" fill="#979797"/>
</svg>
