<svg width="18" height="18" viewBox="0 0 18 18" fill="none" xmlns="http://www.w3.org/2000/svg">
<path d="M8.99935 4.83268C6.69935 4.83268 4.83268 6.69935 4.83268 8.99935C4.83268 11.2993 6.69935 13.166 8.99935 13.166C11.2993 13.166 13.166 11.2993 13.166 8.99935C13.166 6.69935 11.2993 4.83268 8.99935 4.83268ZM8.99935 0.666016C4.39935 0.666016 0.666016 4.39935 0.666016 8.99935C0.666016 13.5993 4.39935 17.3327 8.99935 17.3327C13.5993 17.3327 17.3327 13.5993 17.3327 8.99935C17.3327 4.39935 13.5993 0.666016 8.99935 0.666016ZM8.99935 15.666C5.31602 15.666 2.33268 12.6827 2.33268 8.99935C2.33268 5.31602 5.31602 2.33268 8.99935 2.33268C12.6827 2.33268 15.666 5.31602 15.666 8.99935C15.666 12.6827 12.6827 15.666 8.99935 15.666Z" fill="#3C7EBF"/>
</svg>
