<svg width="19" height="24" viewBox="0 0 19 24" fill="none" xmlns="http://www.w3.org/2000/svg">
<path d="M12.4873 13.5312V13.0312C12.4873 12.4583 12.5915 11.9818 12.7998 11.6016C13.0081 11.2214 13.3727 10.8281 13.8936 10.4219C14.5133 9.93229 14.9118 9.55208 15.0889 9.28125C15.2712 9.01042 15.3623 8.6875 15.3623 8.3125C15.3623 7.875 15.2165 7.53906 14.9248 7.30469C14.6331 7.07031 14.2139 6.95312 13.667 6.95312C13.1722 6.95312 12.7139 7.02344 12.292 7.16406C11.8701 7.30469 11.4587 7.47396 11.0576 7.67188L10.4014 6.29688C11.4587 5.70833 12.5915 5.41406 13.7998 5.41406C14.8206 5.41406 15.6305 5.66406 16.2295 6.16406C16.8285 6.66406 17.1279 7.35417 17.1279 8.23438C17.1279 8.625 17.0706 8.97396 16.9561 9.28125C16.8415 9.58333 16.667 9.8724 16.4326 10.1484C16.2035 10.4245 15.805 10.7839 15.2373 11.2266C14.7529 11.6068 14.4274 11.9219 14.2607 12.1719C14.0993 12.4219 14.0186 12.7578 14.0186 13.1797V13.5312H12.4873ZM12.167 16.0234C12.167 15.237 12.5498 14.8438 13.3154 14.8438C13.6904 14.8438 13.9769 14.9479 14.1748 15.1562C14.3727 15.3594 14.4717 15.6484 14.4717 16.0234C14.4717 16.3932 14.3701 16.6875 14.167 16.9062C13.9691 17.1198 13.6852 17.2266 13.3154 17.2266C12.9456 17.2266 12.6618 17.1224 12.4639 16.9141C12.266 16.7005 12.167 16.4036 12.167 16.0234Z" fill="#979797"/>
<rect y="10" width="5" height="1" fill="#979797"/>
<rect y="13" width="8" height="1" fill="#979797"/>
</svg>
