<svg width="12" height="13" viewBox="0 0 12 13" fill="none" xmlns="http://www.w3.org/2000/svg">
<path d="M1.54688 8.85156H0.726562L0.328125 0.578125H1.94531L1.54688 8.85156ZM0.1875 11.1719C0.1875 10.4635 0.5 10.1094 1.125 10.1094C1.42708 10.1094 1.65885 10.2005 1.82031 10.3828C1.98698 10.5651 2.07031 10.8281 2.07031 11.1719C2.07031 11.5052 1.98698 11.7656 1.82031 11.9531C1.65365 12.1354 1.42188 12.2266 1.125 12.2266C0.854167 12.2266 0.630208 12.1458 0.453125 11.9844C0.276042 11.8177 0.1875 11.5469 0.1875 11.1719ZM4.21094 5.29688V4.22656H11.4766V5.29688H4.21094ZM4.21094 8.49219V7.42188H11.4766V8.49219H4.21094Z" fill="#979797"/>
</svg>
