<svg width="22" height="22" viewBox="0 0 22 22" fill="#555" xmlns="http://www.w3.org/2000/svg">
<path d="M14.5662 21.505C14.8365 21.7776 15.2073 21.9617 15.5871 21.9935C15.9713 22.0253 16.3667 21.9299 16.6861 21.7095C16.7732 21.6504 16.8559 21.58 16.9296 21.505L16.9318 21.5027L21.509 16.8475C22.1635 16.1818 22.1635 15.1027 21.509 14.437C20.8545 13.7713 19.7934 13.7713 19.1389 14.437L17.4211 16.1841V1.71177C17.4211 0.771187 16.6705 0.0078125 15.7457 0.0078125C14.8209 0.0078125 14.0703 0.771187 14.0703 1.71177V16.1841L12.3078 14.3915C11.6533 13.7258 10.5922 13.7258 9.93768 14.3915C9.28314 15.0572 9.28314 16.1364 9.93768 16.8021L14.5617 21.505C14.564 21.5027 14.564 21.505 14.5662 21.505Z" fill="#555"/>
<path d="M1.6748 8.11612C2.1037 8.11612 2.5326 7.95027 2.85874 7.61629L4.62124 5.82372V20.296C4.62124 21.2366 5.37182 22 6.29663 22C7.22144 22 7.97201 21.2366 7.97201 20.296V5.82372L9.68982 7.57085C10.016 7.90256 10.4449 8.07068 10.8738 8.07068C11.3027 8.07068 11.7316 7.90483 12.0577 7.57085C12.7122 6.90517 12.7122 5.82599 12.0577 5.16031C11.9371 5.03763 11.8142 4.91267 11.6936 4.78999C11.3965 4.48782 11.1016 4.18338 10.8023 3.88348C10.4181 3.49497 10.0361 3.10647 9.6541 2.7157C9.27881 2.32946 8.89012 1.95459 8.51707 1.56382C8.15519 1.18667 7.78884 0.816347 7.4024 0.461923C7.00031 0.0938668 6.47536 -0.0878891 5.93477 0.041612C5.79627 0.0734192 5.64884 0.127946 5.52374 0.198376C5.15069 0.41194 4.85359 0.764092 4.55202 1.06853C4.18343 1.43886 3.82155 1.816 3.4552 2.19088C3.0196 2.63618 2.57953 3.07921 2.1417 3.52224C1.77535 3.89938 1.40453 4.27653 1.03595 4.65367C0.857238 4.83542 0.67853 5.01491 0.499823 5.19666C0.497589 5.19894 0.493121 5.20348 0.490887 5.20575C-0.163629 5.87143 -0.163629 6.95061 0.490887 7.61629C0.817006 7.95027 1.2459 8.11612 1.6748 8.11612Z" fill="#555"/>
</svg>
